<?xml version="1.0" encoding="utf-8"?>
<!-- Generator: Adobe Illustrator 26.2.1, SVG Export Plug-In . SVG Version: 6.00 Build 0)  -->
<svg version="1.1" id="Capa_1" xmlns="http://www.w3.org/2000/svg" xmlns:xlink="http://www.w3.org/1999/xlink" x="0px" y="0px"
	 viewBox="0 0 700 700" style="enable-background:new 0 0 700 700;" xml:space="preserve">
<path d="M414.9,72.1c-65.5,0.1-126.5,33.9-161.6,89.4s-39.2,125.1-11.1,184.2L113.1,475.5c-16.2,16.2-22.5,39.6-16.5,61.6
	c6,22,23.1,39.2,45.2,45.1c22.2,5.9,45.6-0.4,61.6-16.5L332.5,436c52.6,25.3,113.9,25.1,166.4-0.3s90.6-73.4,103.5-130.3
	c12.8-56.9-1-116.6-37.5-162.1S473,71.5,414.8,71.8L414.9,72.1z M176.8,540c-5.2,5-12.1,7.7-19.3,7.7s-14.1-2.7-19.3-7.7
	c-5.1-5.1-7.9-12.1-7.9-19.3c0-7.3,2.9-14.2,7.9-19.3l123.5-123.3c10.9,14.7,24,27.6,38.7,38.7L176.8,540z M414.9,418.7
	c-41.2,0-80.5-16.3-109.6-45.5c-29.1-29.1-45.5-68.5-45.5-109.6c0-41.2,16.3-80.5,45.5-109.6c29.1-29.1,68.5-45.5,109.6-45.5
	c41.2,0,80.5,16.3,109.6,45.5c29.1,29.1,45.5,68.5,45.5,109.6c0,41.2-16.3,80.5-45.5,109.6C495.4,402.2,455.9,418.7,414.9,418.7z"/>
<path d="M432.2,226.3c0,10-8.2,18.2-18.2,18.2c-10,0-18.2-8.2-18.2-18.2s8.2-18.2,18.2-18.2C424,208.1,432.2,216.3,432.2,226.3"/>
<path d="M477.8,344.9c0,10-8.2,18.2-18.2,18.2c-10,0-18.2-8.2-18.2-18.2c0-10,8.2-18.2,18.2-18.2
	C469.6,326.7,477.8,334.9,477.8,344.9"/>
<path d="M375.2,280.3c-4-2.7-9.1-3.6-13.9-2.6c-4.8,1-9,4-11.6,8.2c-2.6,4.2-3.4,9.3-2.2,14.1c1.2,4.8,4.3,8.9,8.5,11.3
	c7.2,3.8,12.5,10.4,14.7,18.2c1.2,9.5-1,19.2-6.1,27.4c-5.3,8.3-3.1,19.5,5.1,25s19.4,3.4,25.1-4.7c10.7-16.4,14.7-36.2,11.5-55.5
	C402,304.1,390.8,289.3,375.2,280.3L375.2,280.3z"/>
<path d="M414.9,140.5c-32.7,0-64,13-87,36.1c-23.1,23.1-36.1,54.3-36.1,87c0,10,8.2,18.2,18.2,18.2s18.2-8.2,18.2-18.2
	c0-22.9,9.1-45,25.4-61.2c16.3-16.3,38.3-25.4,61.2-25.4c10,0,18.2-8.2,18.2-18.2C433.1,148.5,424.9,140.5,414.9,140.5z"/>
<path d="M517.7,259c-1.7-0.5-3-1.8-3.4-3.4c-0.5-1.7-0.1-3.4,0.9-4.8c1.4-1.8,1.6-4.4,0.3-6.3c-1.3-1.8-3.8-2.7-6-2
	c-1.6,0.5-3.4,0.3-4.8-0.8c-1.4-1-2.1-2.7-2.1-4.4c0-2.1-1.4-4-3.4-4.8c-2-0.8-4.3-0.1-5.7,1.4c-0.9,1.4-2.6,2.3-4.3,2.3
	c-1.7,0-3.4-0.9-4.3-2.3c-1.3-2-3.6-2.9-5.9-2.2c-2.2,0.7-3.8,2.7-3.6,5.1c0,1.7-0.8,3.4-2.2,4.3c-1.4,1-3.3,1.2-4.8,0.7
	c-2.2-0.9-4.7-0.1-6.1,1.7c-1.4,1.8-1.4,4.4,0,6.3c1,1.4,1.3,3.1,0.8,4.8c-0.5,1.6-2,2.9-3.5,3.3c-2.2,0.7-3.8,2.7-3.8,5.1
	s1.6,4.4,3.8,5c1.7,0.5,3,1.8,3.4,3.4c0.5,1.7,0.1,3.4-0.9,4.8c-1.4,1.8-1.6,4.4-0.3,6.3c1.3,2,3.8,2.7,6,2c1.6-0.5,3.4-0.3,4.8,0.8
	c1.4,1,2.1,2.7,2.1,4.4c0,2.1,1.4,4,3.4,4.8c2.1,0.8,4.3,0.1,5.7-1.4c0.9-1.4,2.6-2.3,4.3-2.3s3.4,0.9,4.3,2.3
	c1.3,1.7,3.5,2.5,5.6,1.8c2.1-0.7,3.5-2.5,3.6-4.7c0-1.7,0.8-3.4,2.2-4.3c1.4-1,3.3-1.2,4.8-0.7c2.2,0.9,4.7,0.1,6.1-1.7
	c1.4-1.8,1.4-4.4,0-6.3c-1-1.4-1.3-3.1-0.8-4.8c0.5-1.7,2-2.9,3.5-3.3c2.3-0.5,4-2.5,4.2-5C521.6,261.8,520,259.6,517.7,259
	L517.7,259z"/>
</svg>
