<?xml version="1.0" encoding="utf-8"?>
<!-- Generator: Adobe Illustrator 26.2.1, SVG Export Plug-In . SVG Version: 6.00 Build 0)  -->
<svg version="1.1" id="Capa_1" xmlns="http://www.w3.org/2000/svg" xmlns:xlink="http://www.w3.org/1999/xlink" x="0px" y="0px"
	 viewBox="0 0 700 700" style="enable-background:new 0 0 700 700;" xml:space="preserve">
<path d="M403.3,578.4c0.3-0.5,0.5-1.1,0.8-1.6c0.3-0.6,0.5-1.2,0.7-1.8c0.2-0.5,0.3-1,0.5-1.5c0.2-0.7,0.4-1.5,0.6-2.2
	c0.1-0.4,0.2-0.9,0.3-1.4c0.2-0.8,0.3-1.7,0.4-2.6c0-0.4,0.1-0.8,0.1-1.3c0.1-1,0.1-2,0.1-3c0-0.4,0-0.8,0-1.2
	c0-1.4-0.1-2.9-0.3-4.4c-0.9-9.1-7.1-25.7-12.3-32.9c-0.9-1.3-1.9-2.6-2.9-4.1c-38.2-54.6-111.6-188.5-47-342.6
	c-10-1.1-20.2-1.9-30.4-2.3c-6,24.2-12.8,60.2-8,101c0.3,2.4-1.4,4.6-3.8,4.9c-0.2,0-0.3,0-0.5,0c-2.2,0-4.1-1.6-4.3-3.9
	c-4.9-41.2,1.8-77.5,7.8-102.4c-9.8-0.2-19.6-0.1-29.4,0.6c-0.1,0-0.2,0-0.3,0v83.8c0,2.4-2,4.4-4.4,4.4s-4.4-2-4.4-4.4v-83.3
	c-6.9,0.3-13.5,0.5-19.8,0.7c-3.6,0.1-7.1,0.2-10.5,0.3c4.7,22.9,9,58.4,4.1,100.3c-0.3,2.2-2.2,3.9-4.3,3.9c-0.2,0-0.3,0-0.5,0
	c-2.4-0.3-4.1-2.5-3.8-4.9c4.9-41.6,0.4-76.6-4.2-98.8c-10.4,0.6-20.2,1.6-29.9,3.8c13.9,26.6,17.9,63.8,12.2,113.5
	c-17.9,155.3,10.8,255.4,85.3,297.6c8.8,5,19.8,8.1,28.5,8.2l3,0c9.2,0.1,21.1,0.2,32.9-1.1c0,0,0,0,0,0c4.2-0.5,8.1-1.1,11.7-1.8
	c0.5-0.1,0.9-0.2,1.4-0.3c1.2-0.3,2.4-0.5,3.5-0.8c0.8-0.2,1.6-0.4,2.4-0.7c0.7-0.2,1.5-0.4,2.2-0.7c1-0.3,2-0.7,3-1.1
	c0.4-0.2,0.8-0.3,1.2-0.5c1.2-0.5,2.3-1,3.4-1.6c0.2-0.1,0.4-0.2,0.6-0.3c1.2-0.6,2.4-1.3,3.6-2.1c0.1,0,0.1-0.1,0.2-0.1
	c1.2-0.8,2.4-1.6,3.5-2.5c0,0,0,0,0,0c1.1-0.9,2.2-1.9,3.1-3c0.6-0.7,1.2-1.4,1.7-2.1c0.2-0.2,0.4-0.5,0.5-0.7
	c0.4-0.6,0.8-1.2,1.2-1.8C402.8,579.3,403.1,578.9,403.3,578.4L403.3,578.4z"/>
<path d="M275,167.1c41.6-2.7,83.3,3.1,119.1,8.8c15.3,2.4,31.4-7.5,38.5-23.5c7.9-17.9,2-37.1-15.7-51.2
	c-39.7-31.6-89.2-34-154.8-34c-69.9,0-116.1,17.3-145.3,54.6c-11.5,14.6-10,45.1,3,60.4c10.3,12.1,25.5,13.2,43.9,3.1
	c27.8-15.3,52-16,82.6-16.8C255.5,168.1,264.8,167.8,275,167.1L275,167.1z"/>
<path d="M522.9,237.3c-4.4,6.6-23.9,39-20.1,87.6c0.2,2.4-1.6,4.5-4,4.7c-0.1,0-0.2,0-0.3,0c-2.3,0-4.2-1.7-4.4-4
	c-3.4-44.7,11.3-76,18.7-88.6c-11.6-0.3-23.4-0.1-35.8,0.5c1.8,19.4,2.4,53.3-0.5,88.1c-0.2,2.3-2.1,4-4.4,4c-0.1,0-0.2,0-0.4,0
	c-2.4-0.2-4.2-2.3-4-4.7c2.9-34.5,2.3-68,0.5-86.8c-13.9,1-26.6,2.6-38.9,4.9c13.2,24.7,18.8,52.5,16.5,82.6c-0.2,2.3-2.1,4-4.4,4
	c-0.1,0-0.2,0-0.3,0c-2.4-0.2-4.2-2.3-4-4.7c2.3-29.4-3.4-56.4-16.7-80.2c-8.7,1.9-17.3,4.1-25.9,6.5
	c54.5,81.6,11.3,173.8-20.9,223.2c9.4,17.7,18.3,31.7,24.9,41.2c0.9,1.3,1.9,2.7,2.8,3.9c6.1,8.5,12.9,26.5,13.9,37.1
	c0.2,1.9,0.3,3.6,0.3,5.4c0,0.8,0,1.6-0.1,2.4c0,0.9-0.1,1.7-0.1,2.6c-0.1,1-0.2,2-0.4,3.1c-0.1,0.5-0.2,1-0.2,1.5
	c-0.2,1.2-0.5,2.3-0.8,3.4c-0.1,0.3-0.2,0.5-0.2,0.8c-2,6.6-5.5,12.2-10.7,16.9c-0.3,0.3-0.6,0.6-0.9,0.9c-0.2,0.2-0.4,0.4-0.6,0.5
	c18.5-6.8,39.8-18.8,63.6-36.2c1-0.7,97.5-73.6,63.9-257.9c-0.9-3.2-7.5-29.3,11.8-61.5C534.9,238,528.9,237.6,522.9,237.3
	L522.9,237.3z"/>
<path d="M600.3,175.2c-28.9-28.9-85.6-42.8-155.6-38.3c-0.1,6.9-1.6,13.4-4,19c-8.6,19.6-28.8,31.7-47.9,28.6
	c-12.5-2-25.7-4-39.3-5.6c-9.2,21.6-15.6,42.7-19.7,63.3c5,5.9,15.5,14.4,32.1,8.9c35.7-11.9,65.9-19.7,105.9-22.1
	c0.1,0,0.2,0,0.3,0c35.5-2,65.9-0.7,101.5,4.4c13.9,2,24.5-8.6,29.8-19.1C609.2,202.3,610.6,185.6,600.3,175.2L600.3,175.2z"/>
</svg>
