<?xml version="1.0" encoding="utf-8"?>
<!-- Generator: Adobe Illustrator 26.2.1, SVG Export Plug-In . SVG Version: 6.00 Build 0)  -->
<svg version="1.1" id="Capa_1" xmlns="http://www.w3.org/2000/svg" xmlns:xlink="http://www.w3.org/1999/xlink" x="0px" y="0px"
	 viewBox="0 0 700 700" style="enable-background:new 0 0 700 700;" xml:space="preserve">
<path d="M650.5,152.2l-2.9-10.1c-30,8.6-56.1,18.7-78.8,29.2c5.4-8.5,10.2-15.8,14.4-20.8l-8-6.8c-5.2,6.1-10.9,15.1-17.5,25.6
	c-2.2,3.5-4.6,7.2-7,10.8c-66.7,34.3-99.1,71.5-109.2,84.6c-1-0.8-2-1.7-3.1-2.5c1.1-10.2,4.7-31,12.1-39.4l-7.8-7
	c-8.6,9.7-12.5,28.6-14,39.7c-8.3-4.8-18.8-8.8-32.3-8.8c-2.3,0-4.6,0.2-6.8,0.4c-6.5-13.7-17.4-43.7-9.6-59l-9.4-4.7
	c-9.8,19.8,2.3,52.1,8.3,65.5c-15.2,3.6-31.8,11.6-49.3,24c-4.1-14.6-14.6-44.5-34.1-47.9l-1.8,10.3c13.6,2.4,23.4,30.6,26.8,44.1
	c-13,9.7-27,19.2-41.5,28.3c-5.6-14.5-20.4-48.2-39.1-52.9l-2.5,10.2c11.9,3,25.6,29.8,32.5,48.3c-14.3,8.9-28.8,17.3-42.7,25.1
	c-5.4-9.4-18.4-31.3-30.8-46.8l-8.2,6.6c11.9,14.8,24.6,36.1,29.9,45.3c-15.1,8.4-29.5,16-42.1,22.4c-8-22.4-26.6-42.6-27.5-43.5
	l-7.7,7.2c0.2,0.2,18.7,20.4,25.8,41.1c-6.2,3.2-12,6.1-17,8.6c-6.5,3.2-11.6,5.9-15.4,7.9c-2.3-5-6.7-11.5-13.4-19.6l-8,6.7
	c8.9,10.6,11.5,15.8,12.4,18.1c-9.5,6.4-19.4,15.8-26.4,28.2c-7.8-4-23.5-9.6-39.9-2.4l4.2,9.6c12.6-5.5,25.2-0.7,31.2,2.3
	c-5.9,15-7.2,33.2,0.5,54.3c-9.1,7.3-36.6,30.4-45,52.3l9.8,3.7c6.8-17.8,29.3-37.7,39.5-45.9c0.8,1.8,1.6,3.5,2.5,5.3
	c7.2,13.4,16.2,22.9,26.9,29c-4.3,12.5-17,49.4-19.8,63.5l10.3,2c2.5-13,14.5-48.1,19.1-61.2c5,1.7,10.3,2.8,16.1,3.1
	c1.1,12.2,4.7,46.4,14,71l9.8-3.7c-8.6-22.4-12.2-54.7-13.3-67.2c11.6-0.7,24-3.6,36.5-7.6c3.7,12,14.3,41.1,31.7,57.6l7.2-7.7
	c-15.6-14.6-25.4-42.3-28.9-53.3c7.9-2.8,15.8-5.8,23.6-8.8c5.4-2,10.8-4.1,16.2-6.1c14.5-5.4,32.5-14.9,51.6-26.8
	c2.9,10.4,8.6,30.2,13,41.4l9.8-3.7c-4.4-11.9-11-34.8-13.4-43.5c14.6-9.5,29.6-20.2,44.3-31.4c6,1,12.2,2.4,18.6,4.3l3-10.1
	c-3.6-1.1-7.2-2-10.8-2.9c2.8-2.3,5.5-4.4,8.3-6.7c6.7,9.2,22.1,31.1,30.7,46.9l9.2-5c-9.2-16.9-25.3-39.6-31.8-48.6
	c10.7-9,20.8-18.1,29.6-26.9c3.7,1.7,11,6.2,21.5,18.5c9.6,11.3,9.6,13.4,9.6,14.3c0.1,2.9,0.8,5.2,4.3,9.4l7.9-6.8
	c-1.6-1.8-1.8-2.4-1.8-2.8c-0.1-3.8-1.1-7.7-12.1-20.8c-9-10.7-16.4-16.4-21.7-19.6c9.2-9.6,17-18.7,22.7-26.8
	c1.6-2.3,3-4.6,4.4-6.8c8.4,8.9,25.7,25,38.9,25c12.6,0,18.4,5.3,18.5,5.5l7.4-7.4c-0.4-0.4-8.8-8.6-26-8.6
	c-8.6,0-24.1-13.8-33.5-24.1c7.3-14.3,10.3-27.2,10.4-38.4c6,0.7,14.9,1.6,23.3,1.6c7.7,0,14.9-0.7,19.2-2.9
	c6.6-3.4,10.9,0,11.3,0.4l7-7.8c-0.4-0.4-9.8-8.5-23-1.9c-5.5,2.8-24.7,1.7-38.6,0c-1.2-6.8-3.6-13-6.7-18.1
	c12.2-8.6,48.2-34.4,68.1-50.6c2.4-2,4.8-4.2,7.2-6.6c46.7-21.5,92.1-31.6,93-31.7l-2.2-10.3c-2.6,0.6-36.2,8-75.2,23.8
	c3.8-5.3,7.6-10.7,11.2-16.1C583.4,175.4,614,162.8,650.5,152.2L650.5,152.2z M370.8,337.1l-10.4-1.2c2-17.6,25.8-46.1,28.6-49.2
	l8,6.8C390.1,301.6,372.3,325,370.8,337.1L370.8,337.1z M274.1,359.9c3-10.7,8.6-29.3,12.8-33.5l7.4,7.4
	c-1.8,2.3-6.7,16.8-10.1,28.8L274.1,359.9z M277.7,406.3c-10,3.2-20.8,16.2-24.1,21l-8.6-6c0.6-0.8,14.2-20,29.5-25L277.7,406.3z
	 M196.4,395.1c-8.3,11.5-18.6,43.2-18.7,43.4l-10-3.2c0.5-1.3,10.9-33.6,20.3-46.3L196.4,395.1z M193.9,495.2l-3.5,10L152.2,492
	l3.5-10L193.9,495.2z M218.6,459.9l32.4,11.4l-3.5,10l-32.4-11.4L218.6,459.9z"/>
</svg>
