<?xml version="1.0" encoding="utf-8"?>
<!-- Generator: Adobe Illustrator 26.2.1, SVG Export Plug-In . SVG Version: 6.00 Build 0)  -->
<svg version="1.1" id="Capa_1" xmlns="http://www.w3.org/2000/svg" xmlns:xlink="http://www.w3.org/1999/xlink" x="0px" y="0px"
	 viewBox="0 0 700 700" style="enable-background:new 0 0 700 700;" xml:space="preserve">
<path d="M551.5,258.5c-10.8,0-19.7,8.7-19.7,19.7c0,6.9,3.6,12.6,9,16.2c-12.6,14.9-33.2,21.6-52.8,14.8
	c-19-6.4-31.4-23.6-32.7-42.3c10.5-0.4,19.2-9,19.2-19.7c0-10.9-8.8-19.8-19.8-19.8c-10.9,0-19.8,8.8-19.8,19.8
	c0,8.5,5.5,15.7,12.9,18.5c-8.1,18.4-26.8,30.6-47.8,29.2c-22-1.6-39.2-17.4-43.9-37.6c8.1-2.6,13.8-9.9,13.8-18.6
	c0-11-8.8-19.8-19.7-19.8c-10.9,0-19.8,8.8-19.8,19.8c0,8.7,5.8,16,13.9,18.6c-4.9,20.2-22.1,36-44,37.6
	c-21.1,1.3-39.6-10.9-47.7-29.2c7.5-2.8,12.9-10,12.9-18.5c0-10.9-8.9-19.8-19.8-19.8c-10.9,0-19.7,8.9-19.7,19.8
	c0,10.7,8.5,19.3,19,19.7c-1.5,18.8-13.8,35.9-32.8,42.3c-19.5,6.8-40.3,0.1-52.9-14.8c5.4-3.6,9.1-9.3,9.1-16.2
	c0-10.9-8.7-19.7-19.8-19.7c-10.8,0-19.7,8.7-19.7,19.7c0,11,8.8,19.8,19.7,19.8c1.3,0,2.5-0.6,3.6-0.7l27.6,113L350,425.2
	l170.4-14.8l27.6-113c1.2,0.1,2.2,0.7,3.5,0.7c11,0,19.8-8.8,19.8-19.8C571.3,267.2,562.5,258.5,551.5,258.5L551.5,258.5z"/>
</svg>
