<?xml version="1.0" encoding="utf-8"?>
<!-- Generator: Adobe Illustrator 26.2.1, SVG Export Plug-In . SVG Version: 6.00 Build 0)  -->
<svg version="1.1" id="Capa_1" xmlns="http://www.w3.org/2000/svg" xmlns:xlink="http://www.w3.org/1999/xlink" x="0px" y="0px"
	 viewBox="0 0 700 700" style="enable-background:new 0 0 700 700;" xml:space="preserve">
<style type="text/css">
	.st0{fill-rule:evenodd;clip-rule:evenodd;}
</style>
<path d="M434.2,347.8c-39.2,0-50.4,22.4-50.4,22.4s-5.6,16.8,5.6,22.4c0,0-16.8,5.6-33.6,28c0,0-5.6-56-5.6-106.4
	c0-50.4,11.2-140,78.4-184.8c0,0-50.4,44.8-56,117.6c0,0,39.2,11.2,61.6-16.8c22.4-28,16.8-72.8,16.8-72.8s-5.6-33.6,5.6-50.4
	c0,0-56-5.6-100.8,22.4S316.6,191,316.6,191s0,28,28,50.4c0,0-11.2,61.6-11.2,156.8c0,0-72.8-95.2-173.6-95.2
	c0,0,67.2-16.8,151.2,33.6c0,0-5.6-78.4-95.2-78.4c-67.2,0-78.4,28-128.8,44.8c0,0,22.4,11.2,44.8,50.4
	c22.4,39.2,44.8,61.6,78.4,61.6c33.6,0,61.6-22.4,72.8-44.8c0,0,50.4,33.6,50.4,84v39.2h22.4v-39.2c0,0,5.6-28,39.2-50.4
	c33.6-22.4,89.6-5.6,89.6-5.6s-61.6-5.6-84,22.4c0,0,11.2,28,44.8,28c28,0,50.4-28,50.4-28s16.8-16.8,28-11.2
	C523.8,409.4,495.8,347.8,434.2,347.8L434.2,347.8z"/>
<path class="st0" d="M543.4,549.4c-12.2,0-23.3,4.6-31.7,12.2c-4.9-29.1-30.1-51.4-60.7-51.4c-18.3,0-34.8,8.1-46,20.8
	c-13.6-12.8-31.8-20.8-52-20.8c-29.8,0-55.5,17.3-67.8,42.4c-10-15.4-27.3-25.6-47-25.6c-22.4,0-41.8,13.2-50.7,32.3
	c-6.5-6.1-15.3-9.9-24.9-9.9c-15.3,0-28.4,9.5-33.8,22.8c-1.8-0.3-3.6-0.4-5.4-0.4c-20.1,0-36.4,16.3-36.4,36.4
	c0,0.9,0.1,1.9,0.1,2.8h101.6c0.2-0.2,0.4-0.4,0.6-0.6c0.1,0.2,0.3,0.4,0.4,0.6h399.1c1.4-4.4,2.1-9.1,2.1-14
	C591,570.7,569.7,549.4,543.4,549.4L543.4,549.4z"/>
</svg>
